# xmcd CD database file
#
# Track frame offsets:
#	150
#	14251
#	32785
#	44896
#	61958
#	78650
#	94527
#	113439
#	125140
#	147006
#	158200
#	176432
#
# Disc length: 2612 seconds
#
# Revision: 2
# Processed by: cddbd v1.5.1PL0 Copyright (c) Steve Scherf et al.
# Submitted via: CDex 1.51
#
DISCID=9c0a320c
DTITLE=Chosen Few - Let Go and Let God
DYEAR=2003
DGENRE=Contemporary Christian
TTITLE0=Let Go and Let God
TTITLE1=All I Deserve are the scars
TTITLE2=Movin' Out of Lodebar
TTITLE3=No More Looking Back
TTITLE4=Heartbeat of Heaven
TTITLE5=Down on My Level
TTITLE6=The Price of Freedom
TTITLE7=At the end of the gloryroad
TTITLE8=Every time he drove a nail
TTITLE9=I am the man
TTITLE10=Won't you believe?
TTITLE11=It's a Beautiful Day
EXTD=YEAR: 2003
EXTT0=
EXTT1=
EXTT2=
EXTT3=
EXTT4=
EXTT5=
EXTT6=
EXTT7=
EXTT8=
EXTT9=
EXTT10=
EXTT11=
PLAYORDER=
